<?xml version="1.0" encoding="UTF-8"?>
<svg width="20px" height="20px" viewBox="0 0 20 20" version="1.1" xmlns="http://www.w3.org/2000/svg" xmlns:xlink="http://www.w3.org/1999/xlink">
    <!-- Generator: Sketch 53.2 (72643) - https://sketchapp.com -->
    <title>Icon/Search</title>
    <desc>Created with Sketch.</desc>
    <g id="Symbols" stroke="none" stroke-width="1" fill="none" fill-rule="evenodd">
        <g id="Header/Mobile/White" transform="translate(-285.000000, -14.000000)">
            <g id="Icon/Search" transform="translate(285.000000, 14.000000)">
                <g>
                    <rect id="Rectangle" fill-rule="nonzero" x="0" y="0" width="20" height="20"></rect>
                    <path d="M8.56809786,15.4158574 C4.78621125,15.4158574 1.72077123,12.3492442 1.72077123,8.56832516 C1.72077123,4.78416258 4.78621125,1.72079287 8.56809786,1.72079287 C12.3496241,1.72079287 15.4154245,4.78416258 15.4154245,8.56832516 C15.4154245,12.3492442 12.3496241,15.4158574 8.56809786,15.4158574 L8.56809786,15.4158574 Z M18.8956684,18.392732 L14.1587599,13.6571228 C15.3833502,12.3092402 16.1361957,10.5288818 16.1361957,8.56832516 C16.1361957,4.3877265 12.7478502,1 8.56809786,1 C4.38798514,1 1,4.3877265 1,8.56832516 C1,12.7449595 4.38798514,16.1366503 8.56809786,16.1366503 C10.5293164,16.1366503 12.3103421,15.3834218 13.6545804,14.1580739 L18.3918493,18.897287 C18.5313185,19.0342377 18.7565595,19.0342377 18.8956684,18.897287 C19.0347772,18.7567324 19.0347772,18.5296827 18.8956684,18.392732 L18.8956684,18.392732 Z" id="Search-Icon" stroke="#FFFFFF" fill="#FFFFFF"></path>
                </g>
            </g>
        </g>
    </g>
</svg>