<svg width="40" height="40" viewBox="0 0 40 40" xmlns="http://www.w3.org/2000/svg"><title>Group 6</title><g fill="none" fill-rule="evenodd"><circle stroke-opacity=".2" stroke="#000" fill="#FFF" fill-rule="nonzero" cx="20" cy="20" r="19.5"/><path d="M12 24.962a9.347 9.347 0 0 0 5.029 1.438c1.168 0 2.273-.175 3.288-.538 1.016-.362 1.893-.85 2.616-1.462a9.941 9.941 0 0 0 1.88-2.113A9.093 9.093 0 0 0 25.98 19.8a9.14 9.14 0 0 0 .394-2.588v-.425A6.394 6.394 0 0 0 28 15.112a6.896 6.896 0 0 1-1.88.513 3.064 3.064 0 0 0 1.436-1.788 6.634 6.634 0 0 1-2.083.788 3.205 3.205 0 0 0-2.4-1.025c-.902 0-1.676.325-2.324.95-.635.638-.965 1.388-.965 2.275 0 .212.038.462.102.75a9.391 9.391 0 0 1-3.784-1 9.05 9.05 0 0 1-2.985-2.388 3.12 3.12 0 0 0-.457 1.625c0 .563.14 1.075.394 1.55.267.475.622.85 1.08 1.15a3.266 3.266 0 0 1-1.499-.4v.038c0 .775.254 1.462.75 2.05.495.6 1.13.962 1.892 1.112-.28.075-.572.113-.877.113-.228 0-.431-.013-.61-.05a3.247 3.247 0 0 0 3.074 2.237C15.67 24.537 14.31 25 12.775 25c-.254 0-.52-.013-.775-.038z" opacity=".5" fill="#000"/></g></svg>